<svg width="202" height="60" viewBox="0 0 202 60" fill="none" xmlns="http://www.w3.org/2000/svg">
<g clip-path="url(#clip0_0_4)">
<path d="M20.014 10.221V32.9491H15.4849V23.4707H4.52915V32.9491H0V10.221H4.52915V19.3441H15.4849V10.221H20.014Z" fill="black"/>
<path d="M42.8473 29.0187V32.9491H25.3954V10.221H42.5525V14.1195H29.8549V19.5403H41.963V23.3381H29.8549V29.0187H42.8473Z" fill="black"/>
<path d="M67.9104 21.5824C67.9104 28.4353 63.2526 32.9438 56.2311 32.9438H47.1782V10.221H56.2311C63.2526 10.221 67.9104 14.7348 67.9104 21.5824ZM63.3491 21.5824C63.3491 17.1694 60.4279 14.2468 56.2311 14.2468H51.702V28.9233H56.2311C60.4655 28.9233 63.3491 26.0007 63.3491 21.5877V21.5824Z" fill="black"/>
<path d="M70.4993 30.2493L72.863 26.9077C74.7979 28.4671 77.5208 29.3741 80.2758 29.3741C83.3256 29.3741 85.2605 28.239 85.2605 26.4197C85.2605 24.7012 83.6526 23.7889 80.0453 23.3699C73.7795 22.622 71.0567 20.5428 71.0567 16.4852C71.0567 12.4275 74.7979 9.73303 80.2115 9.73303C83.331 9.73303 86.4451 10.7408 88.8088 12.4593L86.5791 15.6418C84.7406 14.3105 82.5109 13.5944 80.3455 13.5944C77.4886 13.5944 75.5215 14.7613 75.5215 16.4162C75.5215 18.0711 76.9955 18.9463 80.576 19.4024C86.9382 20.2458 89.795 22.3886 89.795 26.3508C89.795 30.6047 85.9895 33.4265 80.2812 33.4265C76.7061 33.4265 73.0935 32.2914 70.5046 30.244L70.4993 30.2493Z" fill="black"/>
<path d="M110.324 14.2468H103.072V32.9491H98.5103V14.2468H91.2583V10.221H110.318V14.2468H110.324Z" fill="black"/>
<path d="M122.035 25.3165H118.063V32.9438H113.534V10.221H124.458C129.443 10.221 132.658 13.2709 132.658 17.8165C132.658 21.4551 130.59 24.0806 127.047 24.9929L133.838 32.9491H128.296L122.03 25.3218L122.035 25.3165ZM124.168 14.2097H118.031V21.4498H124.168C126.693 21.4498 128.172 20.1185 128.172 17.8483C128.172 15.5782 126.693 14.2097 124.168 14.2097Z" fill="black"/>
<path d="M135.778 21.5824C135.778 14.4378 140.602 9.7012 147.886 9.7012C155.17 9.7012 159.962 14.4431 159.962 21.5824C159.962 28.7217 155.138 33.4636 147.886 33.4636C140.634 33.4636 135.778 28.7217 135.778 21.5824ZM155.369 21.5824C155.369 16.9413 152.351 13.7907 147.886 13.7907C143.421 13.7907 140.371 16.9413 140.371 21.5824C140.371 26.2235 143.389 29.3741 147.886 29.3741C152.383 29.3741 155.369 26.2235 155.369 21.5824ZM141.556 5.64356C141.556 4.02051 142.837 3.17715 144.08 3.17715C145.324 3.17715 146.605 4.02051 146.605 5.64356C146.605 7.26662 145.356 8.07814 144.08 8.07814C142.805 8.07814 141.556 7.23479 141.556 5.64356ZM149.135 5.64356C149.135 4.02051 150.384 3.17715 151.627 3.17715C152.871 3.17715 154.152 4.02051 154.152 5.64356C154.152 7.26662 152.903 8.07814 151.627 8.07814C150.352 8.07814 149.135 7.23479 149.135 5.64356Z" fill="black"/>
<path d="M188.761 10.221V32.9491H184.232V17.5937L176.819 26.7804H175.902L168.49 17.5937V32.9491H163.961V10.221H168.029L176.363 20.6117L184.666 10.221H188.766H188.761Z" fill="black"/>
<path d="M16.7981 58.6368V60H0.621765V37.2719H16.3693V38.6351H2.06895V47.8218H15.6832V49.1849H2.06895V58.6315H16.7981V58.6368Z" fill="black"/>
<path d="M39.6957 53.9268C39.6957 57.6927 36.8067 60 32.0524 60H22.0454V37.2719H32.0524C36.1849 37.2719 38.8756 39.611 38.8756 43.1489C38.8756 45.5516 37.5303 47.6308 35.3649 48.3734C38.0555 49.2167 39.6957 51.296 39.6957 53.9268ZM32.0524 38.6351H23.4872V47.7263H32.0524C35.4667 47.7263 37.466 46.0396 37.466 43.2125C37.466 40.3854 35.397 38.6351 32.0524 38.6351ZM38.2539 53.8631C38.2539 50.9088 35.8901 49.0895 32.1167 49.0895H23.4872V58.6368H32.1167C35.9544 58.6368 38.2539 56.8494 38.2539 53.8631Z" fill="black"/>
<path d="M62.4969 53.9268C62.4969 57.6927 59.6079 60 54.8536 60H44.8466V37.2719H54.8536C58.9861 37.2719 61.6768 39.611 61.6768 43.1489C61.6768 45.5516 60.3315 47.6308 58.1661 48.3734C60.8568 49.2167 62.4969 51.296 62.4969 53.9268ZM54.8536 38.6351H46.2884V47.7263H54.8536C58.2679 47.7263 60.2672 46.0396 60.2672 43.2125C60.2672 40.3854 58.1982 38.6351 54.8536 38.6351ZM61.0497 53.8631C61.0497 50.9088 58.686 49.0895 54.9126 49.0895H46.2831V58.6368H54.9126C58.7503 58.6368 61.0497 56.8494 61.0497 53.8631Z" fill="black"/>
<path d="M82.8003 54.2822H68.827L66.2327 59.9947H64.6569L74.9587 37.2666H76.6632L86.965 59.9947H85.3892L82.795 54.2822H82.8003ZM69.4165 52.8872H82.2107L75.811 38.7942L69.4112 52.8872H69.4165Z" fill="black"/>
<path d="M195.36 4.72596H194.987V0.811537H193.585V0.48056H196.762V0.811537H195.36V4.72596Z" fill="black"/>
<path d="M201.538 4.72596H201.165V0.95793L199.602 4.72596H199.46L197.891 0.95793V4.72596H197.524V0.48056H198.071L199.531 4.00036L200.985 0.48056H201.538V4.72596Z" fill="black"/>
</g>
<defs>
<clipPath id="clip0_0_4">
<rect width="202" height="60" fill="white"/>
</clipPath>
</defs>
</svg>
