<svg width="1345" height="408" viewBox="0 0 1345 408" fill="none" xmlns="http://www.w3.org/2000/svg">
<path d="M142.604 50.5024V213.456H110.333V145.499H32.2711V213.456H0V50.5024H32.2711V115.912H110.333V50.5024H142.604Z" fill="black"/>
<path d="M305.296 185.277V213.456H180.948V50.5024H303.196V78.4536H212.722V117.319H298.995V144.548H212.722V185.277H305.296Z" fill="black"/>
<path d="M483.876 131.96C483.876 181.094 450.688 213.418 400.659 213.418H336.154V50.5024H400.659C450.688 50.5024 483.876 82.8649 483.876 131.96ZM451.376 131.96C451.376 100.32 430.562 79.3663 400.659 79.3663H368.387V184.592H400.659C430.829 184.592 451.376 163.638 451.376 131.998V131.96Z" fill="black"/>
<path d="M502.322 194.099L519.164 170.141C532.951 181.322 552.352 187.825 571.982 187.825C593.713 187.825 607.499 179.686 607.499 166.643C607.499 154.321 596.042 147.78 570.34 144.776C525.695 139.414 506.294 124.507 506.294 95.4144C506.294 66.3223 532.951 47.0037 571.524 47.0037C593.751 47.0037 615.94 54.2292 632.782 66.5505L616.894 89.3678C603.795 79.8226 587.908 74.6887 572.479 74.6887C552.123 74.6887 538.107 83.055 538.107 94.9201C538.107 106.785 548.609 113.06 574.121 116.33C619.453 122.377 639.809 137.741 639.809 166.148C639.809 196.647 612.693 216.879 572.02 216.879C546.547 216.879 520.807 208.74 502.36 194.061L502.322 194.099Z" fill="black"/>
<path d="M786.079 79.3663H734.407V213.456H701.907V79.3663H650.235V50.5024H786.041V79.3663H786.079Z" fill="black"/>
<path d="M869.526 158.733H841.227V213.418H808.955V50.5024H886.788C922.305 50.5024 945.22 72.369 945.22 104.96C945.22 131.048 930.478 149.872 905.234 156.413L953.622 213.456H914.133L869.488 158.771L869.526 158.733ZM884.726 79.1001H840.997V131.009H884.726C902.714 131.009 913.254 121.464 913.254 105.188C913.254 88.9115 902.714 79.1001 884.726 79.1001Z" fill="black"/>
<path d="M967.447 131.96C967.447 80.7353 1001.82 46.7755 1053.72 46.7755C1105.62 46.7755 1139.76 80.7733 1139.76 131.96C1139.76 183.147 1105.39 217.145 1053.72 217.145C1002.05 217.145 967.447 183.147 967.447 131.96ZM1107.03 131.96C1107.03 98.6849 1085.53 76.0958 1053.72 76.0958C1021.91 76.0958 1000.18 98.6849 1000.18 131.96C1000.18 165.235 1021.68 187.825 1053.72 187.825C1085.76 187.825 1107.03 165.235 1107.03 131.96ZM1008.62 17.6834C1008.62 6.04659 1017.74 0 1026.6 0C1035.46 0 1044.59 6.04659 1044.59 17.6834C1044.59 29.3203 1035.69 35.1387 1026.6 35.1387C1017.51 35.1387 1008.62 29.0921 1008.62 17.6834ZM1062.62 17.6834C1062.62 6.04659 1071.52 0 1080.38 0C1089.24 0 1098.36 6.04659 1098.36 17.6834C1098.36 29.3203 1089.47 35.1387 1080.38 35.1387C1071.29 35.1387 1062.62 29.0921 1062.62 17.6834Z" fill="black"/>
<path d="M1344.96 50.5024V213.456H1312.69V103.363L1259.87 169.229H1253.34L1200.52 103.363V213.456H1168.25V50.5024H1197.24L1256.63 125.001L1315.78 50.5024H1345H1344.96Z" fill="black"/>
<path d="M119.69 397.63V407.403H4.43011V244.45H116.634V254.223H14.7416V320.089H111.746V329.862H14.7416V397.592H119.69V397.63Z" fill="black"/>
<path d="M282.84 363.86C282.84 390.861 262.255 407.403 228.38 407.403H157.078V244.45H228.38C257.825 244.45 276.997 261.22 276.997 286.586C276.997 303.813 267.411 318.72 251.982 324.044C271.154 330.091 282.84 344.998 282.84 363.86ZM228.38 254.223H167.352V319.405H228.38C252.708 319.405 266.953 307.311 266.953 287.042C266.953 266.773 252.211 254.223 228.38 254.223ZM272.567 363.404C272.567 342.222 255.725 329.178 228.839 329.178H167.352V397.63H228.839C256.183 397.63 272.567 384.814 272.567 363.404Z" fill="black"/>
<path d="M445.303 363.86C445.303 390.861 424.719 407.403 390.844 407.403H319.542V244.45H390.844C420.289 244.45 439.46 261.22 439.46 286.586C439.46 303.813 429.874 318.72 414.445 324.044C433.617 330.091 445.303 344.998 445.303 363.86ZM390.844 254.223H329.815V319.405H390.844C415.171 319.405 429.416 307.311 429.416 287.042C429.416 266.773 414.675 254.223 390.844 254.223ZM434.992 363.404C434.992 342.222 418.15 329.178 391.264 329.178H329.777V397.63H391.264C418.608 397.63 434.992 384.814 434.992 363.404Z" fill="black"/>
<path d="M589.97 366.408H490.407L471.922 407.365H460.694L534.097 244.412H546.242L619.644 407.365H608.416L589.932 366.408H589.97ZM494.608 356.407H585.769L540.169 255.364L494.57 356.407H494.608Z" fill="black"/>
</svg>
